<?xml version="1.0" encoding="UTF-8"?>
<svg id="Calque_2" data-name="Calque 2" xmlns="http://www.w3.org/2000/svg" viewBox="0 0 34 34">
  <g id="Calque_1-2" data-name="Calque 1">
    <g>
      <path d="M20.99,8.88h-7.98c-2.28,0-4.13,1.85-4.13,4.13v7.99c0,2.28,1.85,4.13,4.13,4.13h7.98c2.28,0,4.13-1.85,4.13-4.13v-7.99c0-2.28-1.85-4.13-4.13-4.13ZM17.08,21.93c-2.72,0-4.93-2.21-4.93-4.93s2.21-4.93,4.93-4.93,4.93,2.21,4.93,4.93-2.21,4.93-4.93,4.93ZM22.29,12.92c-.65,0-1.17-.52-1.17-1.17s.53-1.17,1.17-1.17,1.17.52,1.17,1.17-.52,1.17-1.17,1.17Z"/>
      <path d="M17.08,13.84c-1.74,0-3.16,1.42-3.16,3.16s1.42,3.15,3.16,3.15,3.15-1.42,3.15-3.15-1.42-3.16-3.15-3.16Z"/>
      <path d="M31,0H3C1.34,0,0,1.34,0,3v28c0,1.66,1.34,3,3,3h28c1.66,0,3-1.34,3-3V3c0-1.66-1.34-3-3-3ZM27,20.99c0,3.31-2.7,6.01-6.01,6.01h-7.98c-3.31,0-6.01-2.69-6.01-6.01v-7.99c0-3.31,2.69-6.01,6.01-6.01h7.98c3.31,0,6.01,2.69,6.01,6.01v7.99Z"/>
    </g>
  </g>
</svg>