<?xml version="1.0" encoding="UTF-8"?>
<svg id="Calque_2" data-name="Calque 2" xmlns="http://www.w3.org/2000/svg" viewBox="0 0 24 24">
  <defs>
    <style>
      .cls-1 {
        fill: none;
      }
    </style>
  </defs>
  <g id="Calque_1-2" data-name="Calque 1">
    <g>
      <g>
        <path d="M3.33,8.99h3.72v11.95h-3.72v-11.95ZM5.19,3.06c1.19,0,2.15.97,2.15,2.15s-.96,2.16-2.15,2.16-2.16-.97-2.16-2.16.96-2.15,2.16-2.15"/>
        <path d="M9.38,8.99h3.56v1.63h.05c.5-.94,1.71-1.93,3.52-1.93,3.76,0,4.45,2.47,4.45,5.69v6.55h-3.71v-5.81c0-1.39-.03-3.17-1.93-3.17s-2.23,1.51-2.23,3.07v5.91h-3.71v-11.95Z"/>
      </g>
      <path class="cls-1" d="M0,0h24v24H0V0Z"/>
    </g>
  </g>
</svg>