<?xml version="1.0" encoding="UTF-8"?>
<svg id="Calque_2" data-name="Calque 2" xmlns="http://www.w3.org/2000/svg" viewBox="0 0 34 34">
  <g id="Calque_1-2" data-name="Calque 1">
    <g>
      <path d="M25.19,21.37c-1.43-.47-2.75-1.76-3.25-3.22-.23-.69.36-1.16.93-1.38.33-.14.96-.35.98-.74-.11-.43-.64-.32-1.13-.26-1.73.35-.69-2.33-1.06-3.33-.62-4.97-9.38-4.64-9.38.54-.2,1.66.79,3.22-1.72,2.73-1.32.34.62,1.07,1.05,1.31.71.41.64,1.05.14,1.87-.62,1-1.36,1.77-2.38,2.26-1.47.5-1.37.79.09,1.18.92.08,1.09,1.12,1.87,1.27.87-.13,2.17-.06,3,.56,1.25.89,2.77,1.44,4.23.66.93-.45,1.71-1.2,2.79-1.27.67-.09,1.52.12,1.77.05l.06-.04c.09-.1.17-.34.24-.47.27-.82,2.01-.73,2.31-1.34.04-.19-.37-.31-.53-.38Z"/>
      <path d="M31,0H3C1.34,0,0,1.34,0,3v28c0,1.66,1.34,3,3,3h28c1.66,0,3-1.34,3-3V3c0-1.66-1.34-3-3-3ZM25.02,23.92c-.42.25-.68.72-1.07,1.01-1.11.72-2.62-.22-3.67.74-2.43,1.85-4.91,1.2-7.25-.37-1.06-.36-2.46.4-3.31-.65-.31-.42-.68-.78-1.19-.93-1.4-.36-2.61-2.12-1.37-3.24.56-.51,1.51-.62,2.12-1.08.37-.31,1.09-.8.74-1.3-1.66-.94-2.14-2.94-.22-3.89.3-.13.68-.2.83-.49.16-.32.08-.89.16-1.39.19-1.92,1.36-3.48,3.18-4.38,3.26-1.85,8.46-.05,9.14,3.94.21.68-.06,1.49.42,2.01.39.27.91.35,1.27.71.9.76.85,2.18-.06,2.91-.35.32-.87.5-.89.79.33,1.57,2.62,1.39,3.34,2.61l.05.11c.51,1.56-.97,2.46-2.24,2.91Z"/>
    </g>
  </g>
</svg>