<?xml version="1.0" encoding="UTF-8"?>
<svg id="Calque_2" data-name="Calque 2" xmlns="http://www.w3.org/2000/svg" viewBox="0 0 24 24">
  <defs>
    <style>
      .cls-1 {
        fill: none;
      }

      .cls-2 {
        fill-rule: evenodd;
      }
    </style>
  </defs>
  <g id="Calque_1-2" data-name="Calque 1">
    <g>
      <g>
        <path d="M2.05,21.97l1.43-5.34c-.81-1.46-1.24-3.1-1.24-4.76C2.25,6.45,6.67,2.03,12.1,2.03s9.85,4.42,9.85,9.85-4.42,9.85-9.85,9.85c-1.63,0-3.24-.41-4.68-1.19l-5.36,1.44ZM7.68,18.54l.34.2c1.24.74,2.65,1.13,4.08,1.13,4.41,0,7.99-3.58,7.99-7.99s-3.58-7.99-7.99-7.99-7.99,3.58-7.99,7.99c0,1.45.4,2.89,1.17,4.14l.21.34-.8,2.98,3-.8Z"/>
        <path class="cls-2" d="M15.76,13.25c-.41-.24-.93-.51-1.41-.32-.37.15-.6.72-.84,1.02-.12.15-.27.17-.45.1-1.38-.55-2.43-1.47-3.19-2.73-.13-.2-.11-.35.05-.53.23-.27.52-.58.58-.94.06-.36-.11-.79-.26-1.11-.19-.41-.41-1-.82-1.24-.38-.22-.88-.09-1.22.18-.59.48-.87,1.23-.86,1.97,0,.21.03.42.08.62.12.49.34.95.6,1.38.19.33.4.65.63.95.74,1,1.65,1.87,2.71,2.52.53.32,1.1.61,1.69.8.66.22,1.25.45,1.97.31.75-.14,1.49-.61,1.78-1.33.09-.21.13-.45.08-.68-.1-.47-.73-.74-1.11-.97Z"/>
      </g>
      <path class="cls-1" d="M0,0h24v24H0V0Z"/>
    </g>
  </g>
</svg>