<?xml version="1.0" encoding="UTF-8"?>
<svg id="Calque_2" data-name="Calque 2" xmlns="http://www.w3.org/2000/svg" viewBox="0 0 34 34">
  <g id="Calque_1-2" data-name="Calque 1">
    <g>
      <path d="M20.19,16.87l-4.82-2.62c-.2-.11-.87.03-.87.26v5.11c0,.22.67.37.87.26l5.03-2.49c.2-.11,0-.4-.21-.52Z"/>
      <path d="M31,0H3C1.34,0,0,1.34,0,3v28c0,1.66,1.34,3,3,3h28c1.66,0,3-1.34,3-3V3c0-1.66-1.34-3-3-3ZM27,19.61c0,2.42-1.96,4.39-4.39,4.39h-11.22c-2.42,0-4.39-1.96-4.39-4.39v-5.22c0-2.42,1.96-4.39,4.39-4.39h11.22c2.42,0,4.39,1.97,4.39,4.39v5.22Z"/>
    </g>
  </g>
</svg>