<?xml version="1.0" encoding="UTF-8"?>
<svg id="Calque_2" data-name="Calque 2" xmlns="http://www.w3.org/2000/svg" viewBox="0 0 24 24">
  <defs>
    <style>
      .cls-1 {
        fill: none;
      }
    </style>
  </defs>
  <g id="Calque_1-2" data-name="Calque 1">
    <g>
      <g>
        <path d="M12.07,15.03c0,.53-.11.99-.32,1.39-.21.4-.5.73-.87,1-.37.27-.8.48-1.28.62-.49.14-1.01.21-1.56.21H2V5.75h6.69c.43,0,.83.09,1.18.28.35.19.65.43.9.73.25.3.44.64.57,1.02.13.38.2.77.2,1.15,0,.61-.15,1.18-.46,1.72-.31.53-.75.93-1.34,1.19.72.21,1.28.59,1.7,1.14.42.55.62,1.23.62,2.05ZM4.43,7.83v3.15h3.24c.41,0,.76-.14,1.05-.42.29-.28.43-.67.43-1.16s-.13-.86-.4-1.14c-.26-.28-.59-.42-.98-.42h-3.34ZM9.62,14.57c0-.22-.04-.44-.11-.64-.08-.21-.18-.38-.31-.54-.13-.15-.28-.27-.46-.36-.18-.09-.37-.13-.58-.13h-3.73v3.29h3.61c.22,0,.43-.04.62-.12.19-.08.36-.2.5-.34.14-.15.25-.32.33-.52.08-.2.12-.41.12-.63Z"/>
        <path d="M17.33,18.25c-.72,0-1.36-.12-1.94-.37-1.15-.49-1.96-1.31-2.43-2.46-.22-.56-.33-1.14-.33-1.76s.11-1.24.32-1.8c.46-1.17,1.27-2,2.43-2.5.59-.25,1.24-.38,1.97-.38s1.38.13,1.95.38c1.89.82,2.78,2.65,2.69,4.64,0,.14-.02.25-.04.34h-6.91c.03.35.12.67.26.94.14.27.31.51.53.7.22.19.46.34.73.44.27.1.56.15.85.15.45,0,.88-.11,1.29-.33.4-.22.68-.51.83-.88l1.96.55c-.33.68-.86,1.24-1.58,1.68-.72.44-1.58.66-2.58.66ZM19.65,12.86c-.06-.67-.3-1.21-.74-1.61-.44-.4-.97-.61-1.59-.61-.31,0-.59.05-.86.16-.27.11-.5.26-.71.45-.2.19-.37.43-.5.7-.13.27-.21.57-.23.9h4.64Z"/>
        <path d="M14.32,6.34h5.98v1.48h-5.98v-1.48Z"/>
      </g>
      <path class="cls-1" d="M0,0h24v24H0V0Z"/>
    </g>
  </g>
</svg>