<?xml version="1.0" encoding="UTF-8"?>
<svg id="Calque_2" data-name="Calque 2" xmlns="http://www.w3.org/2000/svg" viewBox="0 0 24 24">
  <defs>
    <style>
      .cls-1 {
        fill: none;
      }
    </style>
  </defs>
  <g id="Calque_1-2" data-name="Calque 1">
    <g>
      <path class="cls-1" d="M0,0h24v24H0V0Z"/>
      <g>
        <path d="M17.29,5.57c-.65,0-1.17.52-1.17,1.17s.52,1.17,1.17,1.17,1.17-.52,1.17-1.17-.52-1.17-1.17-1.17Z"/>
        <path d="M12.08,7.07c-2.72,0-4.93,2.21-4.93,4.93s2.21,4.93,4.93,4.93,4.93-2.21,4.93-4.93-2.21-4.93-4.93-4.93ZM12.08,15.15c-1.74,0-3.16-1.42-3.16-3.15s1.42-3.15,3.16-3.15,3.15,1.42,3.15,3.15-1.42,3.15-3.15,3.15Z"/>
        <path d="M15.99,22h-7.98c-3.31,0-6.01-2.69-6.01-6.01v-7.99c0-3.31,2.69-6.01,6.01-6.01h7.98c3.31,0,6.01,2.69,6.01,6.01v7.99c0,3.31-2.7,6.01-6.01,6.01ZM8.01,3.88c-2.28,0-4.13,1.85-4.13,4.13v7.99c0,2.28,1.85,4.13,4.13,4.13h7.98c2.28,0,4.13-1.85,4.13-4.13v-7.99c0-2.28-1.85-4.13-4.13-4.13h-7.98Z"/>
      </g>
    </g>
  </g>
</svg>