<?xml version="1.0" encoding="UTF-8"?>
<svg id="Calque_2" data-name="Calque 2" xmlns="http://www.w3.org/2000/svg" viewBox="0 0 34 34">
  <g id="Calque_1-2" data-name="Calque 1">
    <path d="M17,0C7.61,0,0,7.61,0,17s7.61,17,17,17,17-7.61,17-17S26.39,0,17,0ZM12.05,24.94h-3.72v-11.95h3.72v11.95ZM10.19,11.36c-1.19,0-2.16-.97-2.16-2.16s.96-2.15,2.16-2.15,2.15.97,2.15,2.15-.96,2.16-2.15,2.16ZM25.96,24.94h-3.71v-5.81c0-1.39-.03-3.17-1.93-3.17s-2.23,1.51-2.23,3.07v5.91h-3.71v-11.95h3.56v1.63h.05c.5-.94,1.71-1.93,3.52-1.93,3.76,0,4.45,2.47,4.45,5.69v6.55Z"/>
  </g>
</svg>