<?xml version="1.0" encoding="UTF-8"?>
<svg id="Calque_2" data-name="Calque 2" xmlns="http://www.w3.org/2000/svg" viewBox="0 0 34 34">
  <g id="Calque_1-2" data-name="Calque 1">
    <path d="M17,0C7.61,0,0,7.61,0,17s7.61,17,17,17,17-7.61,17-17S26.39,0,17,0ZM22.75,19.22c-1.98,2.45-5.18,2.62-6.66,1.11-.11-.12-.21-.25-.32-.39-.02.06-.03.1-.04.15-.71,2.78-.79,3.4-1.52,4.69-.35.61-.74,1.2-1.17,1.75-.05.06-.09.14-.19.12-.11-.02-.12-.12-.13-.2-.12-.85-.18-1.69-.15-2.55.04-1.11.17-1.49,1.61-7.52.02-.09,0-.17-.03-.25-.34-.93-.41-1.86-.11-2.82.65-2.06,2.98-2.21,3.39-.52.25,1.05-.41,2.42-.92,4.45-.42,1.67,1.55,2.86,3.23,1.64,1.55-1.13,2.16-3.83,2.04-5.74-.23-3.82-4.41-4.64-7.07-3.41-3.04,1.41-3.74,5.18-2.36,6.91.17.22.31.35.25.58-.09.35-.17.69-.26,1.04-.07.26-.28.35-.54.24-.51-.2-.93-.53-1.27-.95-1.17-1.45-1.5-4.3.04-6.72,1.71-2.68,4.89-3.77,7.79-3.44,3.47.39,5.66,2.76,6.07,5.45.19,1.22.05,4.24-1.67,6.38Z"/>
  </g>
</svg>