<?xml version="1.0" encoding="UTF-8"?>
<svg id="Calque_2" data-name="Calque 2" xmlns="http://www.w3.org/2000/svg" viewBox="0 0 24 24">
  <defs>
    <style>
      .cls-1 {
        fill: none;
      }
    </style>
  </defs>
  <g id="Calque_1-2" data-name="Calque 1">
    <g>
      <path d="M22.2,15.9c-.72-1.22-3.01-1.04-3.34-2.61.02-.29.53-.47.89-.79.91-.73.96-2.15.06-2.91-.37-.36-.88-.43-1.27-.71-.47-.51-.21-1.32-.42-2.01-.68-3.99-5.87-5.79-9.14-3.94-1.82.9-2.99,2.46-3.18,4.38-.08.51,0,1.08-.16,1.39-.15.29-.53.35-.83.49-1.93.95-1.45,2.95.22,3.89.35.49-.38.99-.74,1.3-.61.47-1.56.58-2.12,1.08-1.24,1.12-.03,2.89,1.37,3.24.51.15.88.51,1.19.93.85,1.05,2.25.29,3.31.65,2.34,1.57,4.82,2.22,7.25.37,1.05-.96,2.55-.02,3.67-.74.39-.29.65-.76,1.07-1.01,1.26-.45,2.74-1.34,2.24-2.91l-.05-.11ZM18.11,18.6c-.25.08-1.1-.14-1.77-.05-1.08.06-1.86.82-2.79,1.27-1.46.78-2.98.23-4.23-.66-.83-.62-2.12-.69-3-.56-.78-.14-.95-1.19-1.87-1.27-1.46-.39-1.56-.68-.09-1.18,1.02-.49,1.76-1.26,2.38-2.26.5-.81.57-1.45-.14-1.87-.42-.24-2.37-.97-1.05-1.31,2.52.49,1.52-1.07,1.72-2.73,0-5.18,8.76-5.51,9.38-.54.36,1-.68,3.68,1.06,3.33.49-.06,1.02-.17,1.13.26-.02.38-.65.59-.98.74-.58.22-1.17.69-.93,1.38.5,1.46,1.82,2.75,3.25,3.22.17.07.58.19.53.38-.3.61-2.04.51-2.31,1.34-.07.14-.15.38-.24.47l-.06.04Z"/>
      <path class="cls-1" d="M0,0h24v24H0V0Z"/>
    </g>
  </g>
</svg>