<?xml version="1.0" encoding="UTF-8"?>
<svg id="Calque_2" data-name="Calque 2" xmlns="http://www.w3.org/2000/svg" viewBox="0 0 34 34">
  <g id="Calque_1-2" data-name="Calque 1">
    <g>
      <path d="M17.36,17.27c-1.79.1-2.38.97-2.34,1.74h0c.05,1.05,1.18,1.54,2.27,1.47,1.07-.06,2.27-.47,2.48-3.05-.55-.12-1.16-.18-1.81-.18-.2,0-.4,0-.6.02Z"/>
      <path d="M17,0C7.61,0,0,7.61,0,17s7.61,17,17,17,17-7.61,17-17S26.39,0,17,0ZM11.8,22.97c1.17,1.48,2.97,2.25,5.34,2.27,2.14-.02,3.56-.52,4.74-1.7,1.35-1.34,1.32-2.99.89-3.99-.25-.59-.71-1.08-1.33-1.45-.15,1.12-.49,2.01-1.03,2.7-.71.91-1.72,1.4-3.03,1.47-.98.05-1.93-.18-2.66-.67-.87-.57-1.37-1.45-1.43-2.47-.1-2.01,1.49-3.46,3.97-3.6.88-.05,1.7-.01,2.47.12-.1-.62-.3-1.11-.61-1.47-.42-.49-1.07-.74-1.92-.74h-.03c-.69,0-1.62.19-2.22,1.1l-1.43-.98c.8-1.21,2.1-1.88,3.66-1.88h.03c2.61.02,4.16,1.65,4.32,4.49h0s0,0,0,0c.09.04.17.08.26.12,1.22.59,2.11,1.47,2.57,2.56.65,1.52.72,3.99-1.26,5.97-1.51,1.51-3.35,2.19-5.94,2.21h-.01c-2.92-.02-5.17-1-6.68-2.92-1.35-1.71-2.04-4.09-2.06-7.07h0v-.02c.02-2.98.71-5.36,2.06-7.07,1.51-1.92,3.76-2.9,6.69-2.92h.01c2.93.02,5.2,1,6.76,2.91.77.95,1.33,2.08,1.69,3.4l-1.68.45c-.3-1.07-.74-1.99-1.34-2.72-1.22-1.49-3.04-2.26-5.44-2.27-2.37.02-4.17.78-5.34,2.27-1.09,1.39-1.66,3.4-1.68,5.97.02,2.57.59,4.58,1.68,5.97Z"/>
    </g>
  </g>
</svg>