<?xml version="1.0" encoding="UTF-8"?>
<svg id="Calque_2" data-name="Calque 2" xmlns="http://www.w3.org/2000/svg" viewBox="0 0 34 34">
  <g id="Calque_1-2" data-name="Calque 1">
    <path d="M17,0C7.61,0,0,7.61,0,17s7.61,17,17,17,17-7.61,17-17S26.39,0,17,0ZM25.26,15.16h0c-.16.02-.32.02-.48.02-1.74,0-3.36-.88-4.32-2.33v7.95c0,3.24-2.63,5.87-5.87,5.87s-5.87-2.63-5.87-5.87,2.63-5.87,5.87-5.87c.12,0,.24.01.36.02v2.89c-.12-.01-.24-.04-.36-.04-1.66,0-3,1.34-3,3s1.34,3,3,3,3.12-1.3,3.12-2.96l.03-13.5h2.77c.26,2.48,2.26,4.42,4.75,4.6v3.22Z"/>
  </g>
</svg>