<?xml version="1.0" encoding="UTF-8"?>
<svg id="Calque_2" data-name="Calque 2" xmlns="http://www.w3.org/2000/svg" viewBox="0 0 34 34">
  <g id="Calque_1-2" data-name="Calque 1">
    <g>
      <path d="M15.93,21.64l2.5-2.5h2.86l2.86-2.86v-7.86h-11.43v10.71h3.21v2.5ZM20.57,10.93h1.43v4.29h-1.43v-4.29ZM16.64,10.93h1.43v4.29h-1.43v-4.29Z"/>
      <path d="M31,0H3C1.34,0,0,1.34,0,3v28c0,1.66,1.34,3,3,3h28c1.66,0,3-1.34,3-3V3c0-1.66-1.34-3-3-3ZM25.57,17l-6.43,6.43h-2.86l-3.57,3.57v-3.57h-4.29v-12.86l3.57-3.57h13.57v10Z"/>
    </g>
  </g>
</svg>