<?xml version="1.0" encoding="UTF-8"?>
<svg id="Calque_2" data-name="Calque 2" xmlns="http://www.w3.org/2000/svg" viewBox="0 0 34 34">
  <g id="Calque_1-2" data-name="Calque 1">
    <g>
      <polygon points="17.19 15.41 12.22 8.3 9.56 8.3 15.72 17.11 16.5 18.22 16.5 18.22 21.77 25.76 24.42 25.76 17.96 16.52 17.19 15.41"/>
      <path d="M31,0H3C1.34,0,0,1.34,0,3v28c0,1.66,1.34,3,3,3h28c1.66,0,3-1.34,3-3V3c0-1.66-1.34-3-3-3ZM20.96,27l-5.34-7.77-6.68,7.77h-1.73l7.64-8.88L7.22,7h5.83l5.05,7.35,6.33-7.35h1.73l-7.29,8.47h0l7.92,11.53h-5.83Z"/>
    </g>
  </g>
</svg>