<?xml version="1.0" encoding="UTF-8"?>
<svg id="Calque_2" data-name="Calque 2" xmlns="http://www.w3.org/2000/svg" viewBox="0 0 34 34">
  <g id="Calque_1-2" data-name="Calque 1">
    <g>
      <path d="M20.19,16.87l-4.82-2.62c-.2-.11-.87.03-.87.26v5.11c0,.22.67.37.87.26l5.03-2.49c.2-.11,0-.4-.21-.52Z"/>
      <path d="M17,0C7.61,0,0,7.61,0,17s7.61,17,17,17,17-7.61,17-17S26.39,0,17,0ZM27,19.61c0,2.42-1.96,4.39-4.39,4.39h-11.22c-2.42,0-4.39-1.96-4.39-4.39v-5.22c0-2.42,1.96-4.39,4.39-4.39h11.22c2.42,0,4.39,1.97,4.39,4.39v5.22Z"/>
    </g>
  </g>
</svg>